<?xml version="1.0" standalone="no"?>
<!DOCTYPE svg PUBLIC "-//W3C//DTD SVG 20010904//EN"
 "http://www.w3.org/TR/2001/REC-SVG-20010904/DTD/svg10.dtd">
<svg version="1.0" xmlns="http://www.w3.org/2000/svg"
 width="152.000000pt" height="152.000000pt" viewBox="0 0 152.000000 152.000000"
 preserveAspectRatio="xMidYMid meet">
<metadata>
Created by potrace 1.11, written by Peter Selinger 2001-2013
</metadata>
<g transform="translate(0.000000,152.000000) scale(0.100000,-0.100000)"
fill="#000000" stroke="none">
<path d="M0 1086 l0 -434 25 -4 c15 -3 30 1 40 12 23 25 154 39 166 17 6 -9
32 -17 76 -22 38 -3 79 -14 93 -22 43 -27 90 -85 90 -112 0 -25 -42 -117 -74
-162 -9 -13 -16 -33 -17 -44 0 -20 -1 -20 -11 1 -8 17 -22 22 -76 28 -37 3
-92 6 -122 6 -30 0 -68 7 -85 16 -16 8 -47 16 -67 17 l-38 3 0 -67 c0 -62 2
-68 33 -95 43 -39 90 -54 167 -54 101 0 189 19 250 55 59 34 110 76 110 91 0
6 13 18 30 27 16 10 48 42 72 72 43 56 80 74 104 54 26 -22 11 -64 -40 -108
-10 -9 -27 -24 -38 -34 -10 -9 -25 -17 -33 -17 -8 0 -15 -8 -15 -17 0 -10 -16
-29 -35 -43 -18 -14 -36 -33 -38 -43 -3 -9 -11 -15 -19 -12 -7 3 -37 -6 -67
-20 -97 -47 -360 -67 -414 -32 -15 9 -35 17 -47 17 -18 0 -20 -6 -20 -80 l0
-80 303 0 302 0 26 32 c25 30 28 31 57 19 17 -7 38 -21 48 -32 14 -16 31 -19
101 -19 l83 0 2 38 c0 20 0 102 -2 182 -3 211 -18 218 -36 17 -4 -43 -11 -80
-16 -83 -5 -4 -7 8 -4 28 15 92 26 256 21 291 -6 30 -4 38 5 32 22 -14 6 143
-19 188 -27 49 -27 65 4 77 22 9 24 13 19 62 -3 29 -10 68 -16 86 -5 18 -7 48
-4 65 4 19 -2 58 -14 97 -11 36 -20 82 -20 103 0 39 -15 50 -25 19 -3 -11 -6
-62 -6 -115 -1 -83 -4 -98 -22 -114 -20 -18 -20 -18 -13 24 8 54 -6 62 -35 21
-35 -52 -133 -142 -178 -163 -22 -11 -41 -23 -41 -27 0 -12 38 -9 42 3 2 6 15
9 28 7 22 -4 19 -6 -18 -18 -43 -13 -51 -12 -154 20 -22 6 -28 5 -28 -6 0 -9
11 -14 29 -14 51 0 43 -17 -10 -24 -41 -6 -55 -4 -70 10 -26 23 -24 42 6 56
19 9 25 19 25 45 0 35 11 49 84 108 61 49 128 62 75 15 -19 -16 -41 -37 -50
-45 -9 -8 -20 -15 -25 -15 -14 -1 -46 -49 -39 -60 3 -5 21 -17 39 -25 31 -15
37 -15 77 1 55 22 99 54 99 71 0 8 7 16 15 19 8 4 15 10 15 15 0 5 16 29 35
55 44 58 45 81 2 99 -35 14 -82 9 -124 -13 -62 -33 -119 -4 -143 73 -31 96 6
192 91 239 73 41 115 31 134 -32 5 -19 -7 -72 -22 -91 -1 -2 -19 12 -38 32
-31 32 -38 35 -55 24 -11 -6 -20 -17 -20 -23 0 -7 -7 -14 -14 -17 -8 -3 -22
-19 -30 -36 -39 -74 58 -124 151 -79 21 10 85 7 146 -8 l27 -6 2 78 c0 44 2
91 3 106 1 16 -6 35 -16 44 -11 10 -19 25 -19 36 0 10 -4 18 -10 18 -5 0 -7 7
-4 15 5 13 -40 15 -375 15 l-381 0 0 -434z m750 -151 c0 -8 -9 -19 -20 -25
-15 -8 -20 -8 -20 3 0 14 19 37 32 37 4 0 8 -7 8 -15z m-70 -58 c0 -8 -11 -19
-25 -25 -33 -15 -35 -15 -35 3 0 8 9 15 19 15 11 0 23 5 26 10 9 14 15 12 15
-3z"/>
<path d="M930 1509 c0 -6 -25 -35 -56 -64 -47 -44 -56 -58 -51 -77 4 -13 7
-33 7 -45 0 -16 6 -23 19 -23 10 0 30 -12 44 -26 24 -24 26 -32 22 -90 -3 -51
0 -72 15 -98 14 -23 23 -67 31 -162 6 -71 14 -133 18 -137 4 -4 26 -5 49 -1
35 5 42 10 42 29 0 12 -7 29 -16 36 -13 11 -15 25 -9 72 6 58 5 61 -25 91 -42
41 -60 96 -59 181 0 80 10 107 59 166 89 107 87 106 140 113 27 4 50 10 50 15
0 4 15 13 33 19 25 8 -6 10 -140 11 -119 1 -173 -2 -173 -10z"/>
<path d="M1420 1513 c34 -7 59 -31 81 -78 l18 -40 0 63 1 62 -62 -1 c-35 -1
-52 -4 -38 -6z"/>
<path d="M1187 1401 c-36 -5 -54 -14 -72 -37 -13 -16 -24 -34 -25 -40 0 -6 -7
-17 -15 -24 -8 -7 -15 -25 -15 -40 0 -43 -10 -63 -25 -50 -10 9 -15 2 -20 -31
-14 -80 54 -126 130 -88 58 28 85 77 94 169 5 42 13 85 20 97 6 12 11 29 11
37 0 17 -6 17 -83 7z"/>
<path d="M1372 1307 c-23 -45 -42 -90 -42 -98 0 -9 -9 -24 -20 -34 -11 -10
-20 -23 -20 -29 0 -21 -85 -105 -130 -129 -51 -27 -60 -48 -31 -74 25 -21 26
-27 4 -48 -19 -20 -11 -38 31 -69 24 -18 40 -21 113 -18 101 3 117 12 162 86
29 49 33 63 32 125 0 39 -3 81 -6 94 -4 13 -1 52 5 87 9 49 9 72 -1 106 -8 24
-16 44 -20 44 -4 0 -9 9 -12 20 -9 35 -23 22 -65 -63z"/>
<path d="M1318 1335 c-12 -15 -18 -42 -18 -77 l0 -53 19 31 c17 28 33 124 21
124 -3 0 -13 -11 -22 -25z"/>
<path d="M1510 930 c0 -30 -43 -109 -84 -154 -20 -22 -36 -45 -36 -53 0 -8 -9
-11 -28 -7 -39 8 -58 -15 -34 -42 29 -32 50 -86 57 -141 7 -50 5 -54 -36 -108
-34 -42 -50 -55 -70 -55 -15 0 -44 -7 -65 -16 -49 -21 -107 -13 -169 22 -53
29 -70 21 -57 -26 4 -14 6 -98 6 -188 l-1 -162 216 2 c213 3 216 3 219 25 2
12 10 27 18 33 19 17 44 -4 44 -36 0 -15 6 -24 15 -24 13 0 15 59 15 475 0
261 -2 475 -5 475 -3 0 -5 -9 -5 -20z"/>
<path d="M1284 749 c-8 -14 18 -31 30 -19 9 9 0 30 -14 30 -5 0 -12 -5 -16
-11z"/>
<path d="M1039 746 c-4 -4 -42 -12 -71 -15 -10 -1 -9 -129 0 -190 6 -40 10
-46 40 -53 18 -5 36 -17 39 -26 11 -27 45 -50 85 -56 43 -7 104 14 158 53 19
14 36 26 38 27 1 0 4 19 6 42 4 55 -23 102 -61 103 -17 1 -21 3 -10 6 27 7 20
26 -8 21 -19 -4 -25 -1 -25 13 0 35 -166 100 -191 75z"/>
<path d="M121 635 c-18 -8 -42 -15 -52 -15 -11 0 -23 -10 -29 -24 -5 -13 -14
-27 -19 -31 -15 -9 -14 -92 2 -102 6 -4 30 -13 52 -19 22 -7 65 -21 95 -33 75
-29 148 -28 202 3 51 28 55 46 33 121 -15 51 -18 55 -48 56 -36 2 -47 1 -97
-7 -32 -4 -36 -2 -51 28 -18 38 -40 44 -88 23z"/>
</g>
</svg>
